<mxfile host="app.diagrams.net" modified="2024-01-19T02:42:12.740Z" agent="Mozilla/5.0 (Macintosh; Intel Mac OS X 10_15_7) AppleWebKit/537.36 (KHTML, like Gecko) Chrome/120.0.0.0 Safari/537.36" etag="6TEAJ1w1TlWjJICBENq5" version="22.1.18" type="github">
  <diagram name="第 1 页" id="3iOVaMSIMI9LyZrxtXD6">
    <mxGraphModel dx="1442" dy="892" grid="1" gridSize="10" guides="1" tooltips="1" connect="1" arrows="1" fold="1" page="1" pageScale="1" pageWidth="827" pageHeight="1169" math="0" shadow="0">
      <root>
        <mxCell id="0" />
        <mxCell id="1" parent="0" />
        <mxCell id="I66v4goZn6Pbe-Iw9Bqh-158" value="" style="rounded=0;whiteSpace=wrap;html=1;dashed=1;" vertex="1" parent="1">
          <mxGeometry x="139" y="897" width="231" height="40" as="geometry" />
        </mxCell>
        <mxCell id="I66v4goZn6Pbe-Iw9Bqh-72" value="" style="rounded=1;whiteSpace=wrap;html=1;align=left;arcSize=6;fillColor=#b1ddf0;strokeColor=#10739e;" vertex="1" parent="1">
          <mxGeometry x="1190" y="450" width="130" height="430" as="geometry" />
        </mxCell>
        <mxCell id="I66v4goZn6Pbe-Iw9Bqh-71" value="" style="rounded=1;whiteSpace=wrap;html=1;align=left;arcSize=6;fillColor=#fff2cc;strokeColor=#d6b656;" vertex="1" parent="1">
          <mxGeometry x="130" y="330" width="1190" height="90" as="geometry" />
        </mxCell>
        <mxCell id="I66v4goZn6Pbe-Iw9Bqh-2" value="&lt;font style=&quot;font-size: 18px;&quot;&gt;&lt;b&gt;业务层&lt;/b&gt;&lt;/font&gt;" style="text;html=1;strokeColor=none;fillColor=none;align=center;verticalAlign=middle;whiteSpace=wrap;rounded=0;" vertex="1" parent="1">
          <mxGeometry x="126.5" y="330" width="70" height="30" as="geometry" />
        </mxCell>
        <mxCell id="I66v4goZn6Pbe-Iw9Bqh-3" value="" style="rounded=1;whiteSpace=wrap;html=1;align=left;arcSize=6;fillColor=#fad7ac;strokeColor=#b46504;" vertex="1" parent="1">
          <mxGeometry x="130" y="450" width="1030" height="430" as="geometry" />
        </mxCell>
        <mxCell id="I66v4goZn6Pbe-Iw9Bqh-4" value="&lt;font style=&quot;font-size: 18px;&quot;&gt;&lt;b&gt;执行层&lt;/b&gt;&lt;/font&gt;" style="text;html=1;strokeColor=none;fillColor=none;align=center;verticalAlign=middle;whiteSpace=wrap;rounded=0;" vertex="1" parent="1">
          <mxGeometry x="132" y="452" width="70" height="30" as="geometry" />
        </mxCell>
        <mxCell id="I66v4goZn6Pbe-Iw9Bqh-5" value="" style="rounded=1;whiteSpace=wrap;html=1;" vertex="1" parent="1">
          <mxGeometry x="142" y="490" width="998" height="210" as="geometry" />
        </mxCell>
        <mxCell id="I66v4goZn6Pbe-Iw9Bqh-6" value="&lt;b&gt;功能测试&lt;/b&gt;" style="text;html=1;strokeColor=none;fillColor=none;align=center;verticalAlign=middle;whiteSpace=wrap;rounded=0;" vertex="1" parent="1">
          <mxGeometry x="142" y="490" width="70" height="30" as="geometry" />
        </mxCell>
        <mxCell id="I66v4goZn6Pbe-Iw9Bqh-7" value="" style="rounded=1;whiteSpace=wrap;html=1;" vertex="1" parent="1">
          <mxGeometry x="142" y="730" width="998" height="128" as="geometry" />
        </mxCell>
        <mxCell id="I66v4goZn6Pbe-Iw9Bqh-8" value="&lt;b&gt;性能测试&lt;/b&gt;" style="text;html=1;strokeColor=none;fillColor=none;align=center;verticalAlign=middle;whiteSpace=wrap;rounded=0;" vertex="1" parent="1">
          <mxGeometry x="141" y="730" width="70" height="30" as="geometry" />
        </mxCell>
        <mxCell id="I66v4goZn6Pbe-Iw9Bqh-25" value="基础功使用验证（连通验证/数据增加/数据删除/数据修改）" style="rounded=1;whiteSpace=wrap;html=1;fillColor=#dae8fc;strokeColor=#6c8ebf;" vertex="1" parent="1">
          <mxGeometry x="171" y="655" width="940" height="30" as="geometry" />
        </mxCell>
        <mxCell id="I66v4goZn6Pbe-Iw9Bqh-26" value="hive" style="rounded=1;whiteSpace=wrap;html=1;fillColor=#d5e8d4;strokeColor=#82b366;" vertex="1" parent="1">
          <mxGeometry x="272" y="769" width="50" height="20" as="geometry" />
        </mxCell>
        <mxCell id="I66v4goZn6Pbe-Iw9Bqh-27" value="hbase" style="rounded=1;whiteSpace=wrap;html=1;fillColor=#d5e8d4;strokeColor=#82b366;" vertex="1" parent="1">
          <mxGeometry x="391" y="769" width="50" height="20" as="geometry" />
        </mxCell>
        <mxCell id="I66v4goZn6Pbe-Iw9Bqh-28" value="hadoop" style="rounded=1;whiteSpace=wrap;html=1;fillColor=#d5e8d4;strokeColor=#82b366;" vertex="1" parent="1">
          <mxGeometry x="151" y="769" width="50" height="20" as="geometry" />
        </mxCell>
        <mxCell id="I66v4goZn6Pbe-Iw9Bqh-29" value="flink" style="rounded=1;whiteSpace=wrap;html=1;fillColor=#d5e8d4;strokeColor=#82b366;" vertex="1" parent="1">
          <mxGeometry x="932" y="769" width="50" height="20" as="geometry" />
        </mxCell>
        <mxCell id="I66v4goZn6Pbe-Iw9Bqh-30" value="tidb" style="rounded=1;whiteSpace=wrap;html=1;fillColor=#d5e8d4;strokeColor=#82b366;" vertex="1" parent="1">
          <mxGeometry x="452" y="769" width="50" height="20" as="geometry" />
        </mxCell>
        <mxCell id="I66v4goZn6Pbe-Iw9Bqh-31" value="doris" style="rounded=1;whiteSpace=wrap;html=1;fillColor=#d5e8d4;strokeColor=#82b366;" vertex="1" parent="1">
          <mxGeometry x="512" y="769" width="50" height="20" as="geometry" />
        </mxCell>
        <mxCell id="I66v4goZn6Pbe-Iw9Bqh-32" value="zookeeper" style="rounded=1;whiteSpace=wrap;html=1;fillColor=#f5f5f5;fontColor=#333333;strokeColor=#666666;" vertex="1" parent="1">
          <mxGeometry x="1070" y="762" width="50" height="20" as="geometry" />
        </mxCell>
        <mxCell id="I66v4goZn6Pbe-Iw9Bqh-33" value="milvus" style="rounded=1;whiteSpace=wrap;html=1;fillColor=#d5e8d4;strokeColor=#82b366;" vertex="1" parent="1">
          <mxGeometry x="1000" y="769" width="50" height="20" as="geometry" />
        </mxCell>
        <mxCell id="I66v4goZn6Pbe-Iw9Bqh-34" value="mysql" style="rounded=1;whiteSpace=wrap;html=1;fillColor=#d5e8d4;strokeColor=#82b366;" vertex="1" parent="1">
          <mxGeometry x="752" y="769" width="50" height="20" as="geometry" />
        </mxCell>
        <mxCell id="I66v4goZn6Pbe-Iw9Bqh-35" value="nginx" style="rounded=1;whiteSpace=wrap;html=1;fillColor=#f5f5f5;strokeColor=#666666;fontColor=#333333;" vertex="1" parent="1">
          <mxGeometry x="1070" y="734" width="50" height="20" as="geometry" />
        </mxCell>
        <mxCell id="I66v4goZn6Pbe-Iw9Bqh-36" value="k8s" style="rounded=1;whiteSpace=wrap;html=1;fillColor=#f5f5f5;fontColor=#333333;strokeColor=#666666;" vertex="1" parent="1">
          <mxGeometry x="1070" y="794" width="50" height="20" as="geometry" />
        </mxCell>
        <mxCell id="I66v4goZn6Pbe-Iw9Bqh-37" value="redis" style="rounded=1;whiteSpace=wrap;html=1;fillColor=#d5e8d4;strokeColor=#82b366;" vertex="1" parent="1">
          <mxGeometry x="812" y="769" width="50" height="20" as="geometry" />
        </mxCell>
        <mxCell id="I66v4goZn6Pbe-Iw9Bqh-38" value="RocketMQ" style="rounded=1;whiteSpace=wrap;html=1;fillColor=#f5f5f5;strokeColor=#666666;fontColor=#333333;" vertex="1" parent="1">
          <mxGeometry x="1070" y="832" width="50" height="20" as="geometry" />
        </mxCell>
        <mxCell id="I66v4goZn6Pbe-Iw9Bqh-39" value="hive-testbench" style="rounded=1;whiteSpace=wrap;html=1;fillColor=#dae8fc;strokeColor=#6c8ebf;" vertex="1" parent="1">
          <mxGeometry x="272" y="819" width="50" height="20" as="geometry" />
        </mxCell>
        <mxCell id="I66v4goZn6Pbe-Iw9Bqh-40" value="sysbench" style="rounded=1;whiteSpace=wrap;html=1;fillColor=#dae8fc;strokeColor=#6c8ebf;" vertex="1" parent="1">
          <mxGeometry x="452" y="819" width="50" height="20" as="geometry" />
        </mxCell>
        <mxCell id="I66v4goZn6Pbe-Iw9Bqh-41" value="YCSB" style="rounded=1;whiteSpace=wrap;html=1;fillColor=#dae8fc;strokeColor=#6c8ebf;" vertex="1" parent="1">
          <mxGeometry x="391" y="819" width="50" height="20" as="geometry" />
        </mxCell>
        <mxCell id="I66v4goZn6Pbe-Iw9Bqh-46" value="kafka" style="rounded=1;whiteSpace=wrap;html=1;fillColor=#d5e8d4;strokeColor=#82b366;" vertex="1" parent="1">
          <mxGeometry x="211" y="769" width="50" height="20" as="geometry" />
        </mxCell>
        <mxCell id="I66v4goZn6Pbe-Iw9Bqh-47" value="spark" style="rounded=1;whiteSpace=wrap;html=1;fillColor=#d5e8d4;strokeColor=#82b366;" vertex="1" parent="1">
          <mxGeometry x="332" y="769" width="50" height="20" as="geometry" />
        </mxCell>
        <mxCell id="I66v4goZn6Pbe-Iw9Bqh-48" value="Clickhouse" style="rounded=1;whiteSpace=wrap;html=1;fillColor=#d5e8d4;strokeColor=#82b366;" vertex="1" parent="1">
          <mxGeometry x="572" y="769" width="50" height="20" as="geometry" />
        </mxCell>
        <mxCell id="I66v4goZn6Pbe-Iw9Bqh-49" value="Trino" style="rounded=1;whiteSpace=wrap;html=1;fillColor=#d5e8d4;strokeColor=#82b366;" vertex="1" parent="1">
          <mxGeometry x="632" y="769" width="50" height="20" as="geometry" />
        </mxCell>
        <mxCell id="I66v4goZn6Pbe-Iw9Bqh-53" value="ES" style="rounded=1;whiteSpace=wrap;html=1;fillColor=#d5e8d4;strokeColor=#82b366;" vertex="1" parent="1">
          <mxGeometry x="692" y="769" width="50" height="20" as="geometry" />
        </mxCell>
        <mxCell id="I66v4goZn6Pbe-Iw9Bqh-54" value="自带" style="rounded=1;whiteSpace=wrap;html=1;fillColor=#dae8fc;strokeColor=#6c8ebf;" vertex="1" parent="1">
          <mxGeometry x="152" y="819" width="50" height="20" as="geometry" />
        </mxCell>
        <mxCell id="I66v4goZn6Pbe-Iw9Bqh-55" value="自带" style="rounded=1;whiteSpace=wrap;html=1;fillColor=#dae8fc;strokeColor=#6c8ebf;" vertex="1" parent="1">
          <mxGeometry x="211" y="819" width="50" height="20" as="geometry" />
        </mxCell>
        <mxCell id="I66v4goZn6Pbe-Iw9Bqh-56" value="TPC-DS" style="rounded=1;whiteSpace=wrap;html=1;fillColor=#dae8fc;strokeColor=#6c8ebf;" vertex="1" parent="1">
          <mxGeometry x="332" y="819" width="50" height="20" as="geometry" />
        </mxCell>
        <mxCell id="I66v4goZn6Pbe-Iw9Bqh-57" value="TPC-H" style="rounded=1;whiteSpace=wrap;html=1;fillColor=#dae8fc;strokeColor=#6c8ebf;" vertex="1" parent="1">
          <mxGeometry x="512" y="819" width="50" height="20" as="geometry" />
        </mxCell>
        <mxCell id="I66v4goZn6Pbe-Iw9Bqh-58" value="esrally" style="rounded=1;whiteSpace=wrap;html=1;fillColor=#dae8fc;strokeColor=#6c8ebf;" vertex="1" parent="1">
          <mxGeometry x="692" y="819" width="50" height="20" as="geometry" />
        </mxCell>
        <mxCell id="I66v4goZn6Pbe-Iw9Bqh-59" value="sysbench" style="rounded=1;whiteSpace=wrap;html=1;fillColor=#dae8fc;strokeColor=#6c8ebf;" vertex="1" parent="1">
          <mxGeometry x="752" y="819" width="50" height="20" as="geometry" />
        </mxCell>
        <mxCell id="I66v4goZn6Pbe-Iw9Bqh-60" value="redis-benchmark" style="rounded=1;whiteSpace=wrap;html=1;fillColor=#dae8fc;strokeColor=#6c8ebf;" vertex="1" parent="1">
          <mxGeometry x="812" y="819" width="50" height="20" as="geometry" />
        </mxCell>
        <mxCell id="I66v4goZn6Pbe-Iw9Bqh-62" value="juiceFS" style="rounded=1;whiteSpace=wrap;html=1;fillColor=#d5e8d4;strokeColor=#82b366;" vertex="1" parent="1">
          <mxGeometry x="872" y="769" width="50" height="20" as="geometry" />
        </mxCell>
        <mxCell id="I66v4goZn6Pbe-Iw9Bqh-66" value="fio" style="rounded=1;whiteSpace=wrap;html=1;fillColor=#dae8fc;strokeColor=#6c8ebf;" vertex="1" parent="1">
          <mxGeometry x="872" y="819" width="50" height="20" as="geometry" />
        </mxCell>
        <mxCell id="I66v4goZn6Pbe-Iw9Bqh-69" value="mysql" style="strokeWidth=2;html=1;shape=mxgraph.flowchart.database;whiteSpace=wrap;" vertex="1" parent="1">
          <mxGeometry x="1203" y="546" width="100" height="60" as="geometry" />
        </mxCell>
        <mxCell id="I66v4goZn6Pbe-Iw9Bqh-73" value="&lt;font style=&quot;font-size: 18px;&quot;&gt;&lt;b&gt;数据层&lt;/b&gt;&lt;/font&gt;" style="text;html=1;strokeColor=none;fillColor=none;align=center;verticalAlign=middle;whiteSpace=wrap;rounded=0;" vertex="1" parent="1">
          <mxGeometry x="1180" y="454" width="89" height="30" as="geometry" />
        </mxCell>
        <mxCell id="I66v4goZn6Pbe-Iw9Bqh-78" value="ClickHouse-benchmark" style="rounded=1;whiteSpace=wrap;html=1;fillColor=#dae8fc;strokeColor=#6c8ebf;" vertex="1" parent="1">
          <mxGeometry x="576.5" y="819" width="50" height="20" as="geometry" />
        </mxCell>
        <mxCell id="I66v4goZn6Pbe-Iw9Bqh-79" value="TPC-DS" style="rounded=1;whiteSpace=wrap;html=1;fillColor=#dae8fc;strokeColor=#6c8ebf;" vertex="1" parent="1">
          <mxGeometry x="633" y="819" width="50" height="20" as="geometry" />
        </mxCell>
        <mxCell id="I66v4goZn6Pbe-Iw9Bqh-113" value="" style="rounded=1;whiteSpace=wrap;html=1;dashed=1;" vertex="1" parent="1">
          <mxGeometry x="176" y="521" width="279" height="91" as="geometry" />
        </mxCell>
        <mxCell id="I66v4goZn6Pbe-Iw9Bqh-9" value="hive" style="rounded=1;whiteSpace=wrap;html=1;fillColor=#d5e8d4;strokeColor=#82b366;" vertex="1" parent="1">
          <mxGeometry x="185" y="582" width="50" height="20" as="geometry" />
        </mxCell>
        <mxCell id="I66v4goZn6Pbe-Iw9Bqh-10" value="hbase" style="rounded=1;whiteSpace=wrap;html=1;fillColor=#d5e8d4;strokeColor=#82b366;" vertex="1" parent="1">
          <mxGeometry x="255" y="582" width="50" height="20" as="geometry" />
        </mxCell>
        <mxCell id="I66v4goZn6Pbe-Iw9Bqh-11" value="hadoop" style="rounded=1;whiteSpace=wrap;html=1;fillColor=#d5e8d4;strokeColor=#82b366;" vertex="1" parent="1">
          <mxGeometry x="185" y="544" width="50" height="20" as="geometry" />
        </mxCell>
        <mxCell id="I66v4goZn6Pbe-Iw9Bqh-12" value="flink" style="rounded=1;whiteSpace=wrap;html=1;fillColor=#d5e8d4;strokeColor=#82b366;" vertex="1" parent="1">
          <mxGeometry x="323" y="544" width="50" height="20" as="geometry" />
        </mxCell>
        <mxCell id="I66v4goZn6Pbe-Iw9Bqh-82" value="spark" style="rounded=1;whiteSpace=wrap;html=1;fillColor=#d5e8d4;strokeColor=#82b366;" vertex="1" parent="1">
          <mxGeometry x="255" y="544" width="50" height="20" as="geometry" />
        </mxCell>
        <mxCell id="I66v4goZn6Pbe-Iw9Bqh-83" value="doris" style="rounded=1;whiteSpace=wrap;html=1;fillColor=#d5e8d4;strokeColor=#82b366;" vertex="1" parent="1">
          <mxGeometry x="323" y="582" width="50" height="20" as="geometry" />
        </mxCell>
        <mxCell id="I66v4goZn6Pbe-Iw9Bqh-85" value="Clickhouse" style="rounded=1;whiteSpace=wrap;html=1;fillColor=#d5e8d4;strokeColor=#82b366;" vertex="1" parent="1">
          <mxGeometry x="393" y="544" width="50" height="20" as="geometry" />
        </mxCell>
        <mxCell id="I66v4goZn6Pbe-Iw9Bqh-86" value="Trino" style="rounded=1;whiteSpace=wrap;html=1;fillColor=#d5e8d4;strokeColor=#82b366;" vertex="1" parent="1">
          <mxGeometry x="393" y="582" width="50" height="20" as="geometry" />
        </mxCell>
        <mxCell id="I66v4goZn6Pbe-Iw9Bqh-114" value="" style="rounded=1;whiteSpace=wrap;html=1;dashed=1;" vertex="1" parent="1">
          <mxGeometry x="484" y="520" width="118" height="92" as="geometry" />
        </mxCell>
        <mxCell id="I66v4goZn6Pbe-Iw9Bqh-17" value="milvus" style="rounded=1;whiteSpace=wrap;html=1;fillColor=#d5e8d4;strokeColor=#82b366;" vertex="1" parent="1">
          <mxGeometry x="514" y="581" width="50" height="20" as="geometry" />
        </mxCell>
        <mxCell id="I66v4goZn6Pbe-Iw9Bqh-88" value="mysql" style="rounded=1;whiteSpace=wrap;html=1;fillColor=#d5e8d4;strokeColor=#82b366;" vertex="1" parent="1">
          <mxGeometry x="514" y="546" width="50" height="20" as="geometry" />
        </mxCell>
        <mxCell id="I66v4goZn6Pbe-Iw9Bqh-115" value="" style="rounded=1;whiteSpace=wrap;html=1;dashed=1;" vertex="1" parent="1">
          <mxGeometry x="782" y="522" width="312" height="90" as="geometry" />
        </mxCell>
        <mxCell id="I66v4goZn6Pbe-Iw9Bqh-15" value="zookeeper" style="rounded=1;whiteSpace=wrap;html=1;fillColor=#d5e8d4;strokeColor=#82b366;" vertex="1" parent="1">
          <mxGeometry x="884" y="543" width="50" height="20" as="geometry" />
        </mxCell>
        <mxCell id="I66v4goZn6Pbe-Iw9Bqh-19" value="nginx" style="rounded=1;whiteSpace=wrap;html=1;fillColor=#d5e8d4;strokeColor=#82b366;" vertex="1" parent="1">
          <mxGeometry x="884" y="581" width="50" height="20" as="geometry" />
        </mxCell>
        <mxCell id="I66v4goZn6Pbe-Iw9Bqh-20" value="k8s" style="rounded=1;whiteSpace=wrap;html=1;fillColor=#d5e8d4;strokeColor=#82b366;" vertex="1" parent="1">
          <mxGeometry x="964" y="543" width="50" height="20" as="geometry" />
        </mxCell>
        <mxCell id="I66v4goZn6Pbe-Iw9Bqh-21" value="kerberos" style="rounded=1;whiteSpace=wrap;html=1;fillColor=#d5e8d4;strokeColor=#82b366;" vertex="1" parent="1">
          <mxGeometry x="1036" y="546" width="50" height="20" as="geometry" />
        </mxCell>
        <mxCell id="I66v4goZn6Pbe-Iw9Bqh-22" value="RocketMQ" style="rounded=1;whiteSpace=wrap;html=1;fillColor=#d5e8d4;strokeColor=#82b366;" vertex="1" parent="1">
          <mxGeometry x="808" y="581" width="50" height="20" as="geometry" />
        </mxCell>
        <mxCell id="I66v4goZn6Pbe-Iw9Bqh-87" value="ES" style="rounded=1;whiteSpace=wrap;html=1;fillColor=#d5e8d4;strokeColor=#82b366;" vertex="1" parent="1">
          <mxGeometry x="1036" y="581" width="50" height="20" as="geometry" />
        </mxCell>
        <mxCell id="I66v4goZn6Pbe-Iw9Bqh-89" value="redis" style="rounded=1;whiteSpace=wrap;html=1;fillColor=#d5e8d4;strokeColor=#82b366;" vertex="1" parent="1">
          <mxGeometry x="964" y="581" width="50" height="20" as="geometry" />
        </mxCell>
        <mxCell id="I66v4goZn6Pbe-Iw9Bqh-95" value="kafka" style="rounded=1;whiteSpace=wrap;html=1;fillColor=#d5e8d4;strokeColor=#82b366;" vertex="1" parent="1">
          <mxGeometry x="808" y="546" width="50" height="20" as="geometry" />
        </mxCell>
        <mxCell id="I66v4goZn6Pbe-Iw9Bqh-116" value="OLAP" style="text;html=1;strokeColor=none;fillColor=none;align=center;verticalAlign=middle;whiteSpace=wrap;rounded=0;" vertex="1" parent="1">
          <mxGeometry x="280.5" y="517" width="70" height="30" as="geometry" />
        </mxCell>
        <mxCell id="I66v4goZn6Pbe-Iw9Bqh-117" value="关系数据库" style="text;html=1;strokeColor=none;fillColor=none;align=center;verticalAlign=middle;whiteSpace=wrap;rounded=0;" vertex="1" parent="1">
          <mxGeometry x="504" y="516" width="70" height="30" as="geometry" />
        </mxCell>
        <mxCell id="I66v4goZn6Pbe-Iw9Bqh-118" value="" style="rounded=1;whiteSpace=wrap;html=1;dashed=1;" vertex="1" parent="1">
          <mxGeometry x="632.75" y="521.5" width="119.5" height="90.5" as="geometry" />
        </mxCell>
        <mxCell id="I66v4goZn6Pbe-Iw9Bqh-13" value="tidb" style="rounded=1;whiteSpace=wrap;html=1;fillColor=#d5e8d4;strokeColor=#82b366;" vertex="1" parent="1">
          <mxGeometry x="669" y="581" width="50" height="20" as="geometry" />
        </mxCell>
        <mxCell id="I66v4goZn6Pbe-Iw9Bqh-91" value="juiceFS" style="rounded=1;whiteSpace=wrap;html=1;fillColor=#d5e8d4;strokeColor=#82b366;" vertex="1" parent="1">
          <mxGeometry x="667.5" y="546" width="50" height="20" as="geometry" />
        </mxCell>
        <mxCell id="I66v4goZn6Pbe-Iw9Bqh-121" value="存储" style="text;html=1;strokeColor=none;fillColor=none;align=center;verticalAlign=middle;whiteSpace=wrap;rounded=0;" vertex="1" parent="1">
          <mxGeometry x="659" y="516" width="70" height="30" as="geometry" />
        </mxCell>
        <mxCell id="I66v4goZn6Pbe-Iw9Bqh-122" value="基础组件" style="text;html=1;strokeColor=none;fillColor=none;align=center;verticalAlign=middle;whiteSpace=wrap;rounded=0;" vertex="1" parent="1">
          <mxGeometry x="904" y="517" width="70" height="30" as="geometry" />
        </mxCell>
        <mxCell id="I66v4goZn6Pbe-Iw9Bqh-139" value="" style="html=1;shadow=0;dashed=0;align=center;verticalAlign=middle;shape=mxgraph.arrows2.arrow;dy=0.38;dx=18.85;direction=south;notch=0;" vertex="1" parent="1">
          <mxGeometry x="1242" y="412" width="30" height="50" as="geometry" />
        </mxCell>
        <mxCell id="I66v4goZn6Pbe-Iw9Bqh-140" value="" style="shape=doubleArrow;whiteSpace=wrap;html=1;direction=south;arrowWidth=0.43128781331029387;arrowSize=0.27692307692307927;" vertex="1" parent="1">
          <mxGeometry x="618.75" y="410" width="44.5" height="50" as="geometry" />
        </mxCell>
        <mxCell id="I66v4goZn6Pbe-Iw9Bqh-141" value="mysql" style="strokeWidth=2;html=1;shape=mxgraph.flowchart.database;whiteSpace=wrap;" vertex="1" parent="1">
          <mxGeometry x="1203" y="640" width="100" height="60" as="geometry" />
        </mxCell>
        <mxCell id="I66v4goZn6Pbe-Iw9Bqh-142" value="mysql" style="strokeWidth=2;html=1;shape=mxgraph.flowchart.database;whiteSpace=wrap;" vertex="1" parent="1">
          <mxGeometry x="1203" y="723" width="100" height="60" as="geometry" />
        </mxCell>
        <mxCell id="I66v4goZn6Pbe-Iw9Bqh-149" value="ip信息配置" style="rounded=1;whiteSpace=wrap;html=1;fillColor=#1ba1e2;strokeColor=#006EAF;fontColor=#ffffff;" vertex="1" parent="1">
          <mxGeometry x="371.5" y="358" width="89" height="34" as="geometry" />
        </mxCell>
        <mxCell id="I66v4goZn6Pbe-Iw9Bqh-150" value="操作日志记录" style="rounded=1;whiteSpace=wrap;html=1;fillColor=#1ba1e2;strokeColor=#006EAF;fontColor=#ffffff;" vertex="1" parent="1">
          <mxGeometry x="843" y="357" width="89" height="34" as="geometry" />
        </mxCell>
        <mxCell id="I66v4goZn6Pbe-Iw9Bqh-151" value="被测组件选择" style="rounded=1;whiteSpace=wrap;html=1;fillColor=#1ba1e2;strokeColor=#006EAF;fontColor=#ffffff;" vertex="1" parent="1">
          <mxGeometry x="212" y="357" width="89" height="34" as="geometry" />
        </mxCell>
        <mxCell id="I66v4goZn6Pbe-Iw9Bqh-152" value="测试报告展示" style="rounded=1;whiteSpace=wrap;html=1;fillColor=#1ba1e2;strokeColor=#006EAF;fontColor=#ffffff;" vertex="1" parent="1">
          <mxGeometry x="1000" y="358" width="89" height="34" as="geometry" />
        </mxCell>
        <mxCell id="I66v4goZn6Pbe-Iw9Bqh-153" value="测试项选择" style="rounded=1;whiteSpace=wrap;html=1;fillColor=#1ba1e2;strokeColor=#006EAF;fontColor=#ffffff;" vertex="1" parent="1">
          <mxGeometry x="529.75" y="358" width="89" height="34" as="geometry" />
        </mxCell>
        <mxCell id="I66v4goZn6Pbe-Iw9Bqh-154" value="组件" style="rounded=1;whiteSpace=wrap;html=1;fillColor=#d5e8d4;strokeColor=#82b366;" vertex="1" parent="1">
          <mxGeometry x="193" y="907" width="67" height="20" as="geometry" />
        </mxCell>
        <mxCell id="I66v4goZn6Pbe-Iw9Bqh-155" value="测试方法" style="rounded=1;whiteSpace=wrap;html=1;fillColor=#dae8fc;strokeColor=#6c8ebf;" vertex="1" parent="1">
          <mxGeometry x="280.5" y="907" width="69" height="20" as="geometry" />
        </mxCell>
        <mxCell id="I66v4goZn6Pbe-Iw9Bqh-156" value="说明：" style="text;html=1;strokeColor=none;fillColor=none;align=center;verticalAlign=middle;whiteSpace=wrap;rounded=0;" vertex="1" parent="1">
          <mxGeometry x="141" y="902" width="60" height="30" as="geometry" />
        </mxCell>
        <mxCell id="I66v4goZn6Pbe-Iw9Bqh-159" value="测试执行" style="rounded=1;whiteSpace=wrap;html=1;fillColor=#1ba1e2;strokeColor=#006EAF;fontColor=#ffffff;" vertex="1" parent="1">
          <mxGeometry x="680.5" y="358" width="89" height="34" as="geometry" />
        </mxCell>
        <mxCell id="I66v4goZn6Pbe-Iw9Bqh-160" value="测试结果持久化" style="rounded=1;whiteSpace=wrap;html=1;fillColor=#1ba1e2;strokeColor=#006EAF;fontColor=#ffffff;" vertex="1" parent="1">
          <mxGeometry x="1170" y="358" width="89" height="34" as="geometry" />
        </mxCell>
        <mxCell id="I66v4goZn6Pbe-Iw9Bqh-161" value="" style="endArrow=classic;html=1;rounded=0;entryX=0.5;entryY=0;entryDx=0;entryDy=0;" edge="1" parent="1" source="I66v4goZn6Pbe-Iw9Bqh-28" target="I66v4goZn6Pbe-Iw9Bqh-54">
          <mxGeometry width="50" height="50" relative="1" as="geometry">
            <mxPoint x="710" y="631" as="sourcePoint" />
            <mxPoint x="760" y="581" as="targetPoint" />
          </mxGeometry>
        </mxCell>
        <mxCell id="I66v4goZn6Pbe-Iw9Bqh-162" value="" style="endArrow=classic;html=1;rounded=0;exitX=0.5;exitY=1;exitDx=0;exitDy=0;entryX=0.5;entryY=0;entryDx=0;entryDy=0;" edge="1" parent="1" source="I66v4goZn6Pbe-Iw9Bqh-46" target="I66v4goZn6Pbe-Iw9Bqh-55">
          <mxGeometry width="50" height="50" relative="1" as="geometry">
            <mxPoint x="235.5" y="789" as="sourcePoint" />
            <mxPoint x="236.5" y="819" as="targetPoint" />
          </mxGeometry>
        </mxCell>
        <mxCell id="I66v4goZn6Pbe-Iw9Bqh-163" value="" style="endArrow=classic;html=1;rounded=0;exitX=0.5;exitY=1;exitDx=0;exitDy=0;entryX=0.5;entryY=0;entryDx=0;entryDy=0;" edge="1" parent="1" source="I66v4goZn6Pbe-Iw9Bqh-26" target="I66v4goZn6Pbe-Iw9Bqh-39">
          <mxGeometry width="50" height="50" relative="1" as="geometry">
            <mxPoint x="296.5" y="789" as="sourcePoint" />
            <mxPoint x="297" y="821" as="targetPoint" />
          </mxGeometry>
        </mxCell>
        <mxCell id="I66v4goZn6Pbe-Iw9Bqh-164" value="" style="endArrow=classic;html=1;rounded=0;exitX=0.5;exitY=1;exitDx=0;exitDy=0;entryX=0.5;entryY=0;entryDx=0;entryDy=0;" edge="1" parent="1" source="I66v4goZn6Pbe-Iw9Bqh-47">
          <mxGeometry width="50" height="50" relative="1" as="geometry">
            <mxPoint x="356.5" y="789" as="sourcePoint" />
            <mxPoint x="357.5" y="819" as="targetPoint" />
          </mxGeometry>
        </mxCell>
        <mxCell id="I66v4goZn6Pbe-Iw9Bqh-165" value="" style="endArrow=classic;html=1;rounded=0;exitX=0.5;exitY=1;exitDx=0;exitDy=0;entryX=0.5;entryY=0;entryDx=0;entryDy=0;" edge="1" parent="1" target="I66v4goZn6Pbe-Iw9Bqh-41">
          <mxGeometry width="50" height="50" relative="1" as="geometry">
            <mxPoint x="416.5" y="789" as="sourcePoint" />
            <mxPoint x="417.5" y="819" as="targetPoint" />
          </mxGeometry>
        </mxCell>
        <mxCell id="I66v4goZn6Pbe-Iw9Bqh-166" value="" style="endArrow=classic;html=1;rounded=0;exitX=0.5;exitY=1;exitDx=0;exitDy=0;entryX=0.5;entryY=0;entryDx=0;entryDy=0;" edge="1" parent="1">
          <mxGeometry width="50" height="50" relative="1" as="geometry">
            <mxPoint x="477.25" y="789" as="sourcePoint" />
            <mxPoint x="476.75" y="819" as="targetPoint" />
          </mxGeometry>
        </mxCell>
        <mxCell id="I66v4goZn6Pbe-Iw9Bqh-167" value="" style="endArrow=classic;html=1;rounded=0;exitX=0.5;exitY=1;exitDx=0;exitDy=0;entryX=0.5;entryY=0;entryDx=0;entryDy=0;" edge="1" parent="1">
          <mxGeometry width="50" height="50" relative="1" as="geometry">
            <mxPoint x="537.25" y="789" as="sourcePoint" />
            <mxPoint x="536.75" y="819" as="targetPoint" />
          </mxGeometry>
        </mxCell>
        <mxCell id="I66v4goZn6Pbe-Iw9Bqh-168" value="" style="endArrow=classic;html=1;rounded=0;exitX=0.5;exitY=1;exitDx=0;exitDy=0;entryX=0.5;entryY=0;entryDx=0;entryDy=0;" edge="1" parent="1">
          <mxGeometry width="50" height="50" relative="1" as="geometry">
            <mxPoint x="597.25" y="789" as="sourcePoint" />
            <mxPoint x="596.75" y="819" as="targetPoint" />
          </mxGeometry>
        </mxCell>
        <mxCell id="I66v4goZn6Pbe-Iw9Bqh-169" value="" style="endArrow=classic;html=1;rounded=0;exitX=0.5;exitY=1;exitDx=0;exitDy=0;entryX=0.5;entryY=0;entryDx=0;entryDy=0;" edge="1" parent="1">
          <mxGeometry width="50" height="50" relative="1" as="geometry">
            <mxPoint x="657.25" y="789" as="sourcePoint" />
            <mxPoint x="656.75" y="819" as="targetPoint" />
          </mxGeometry>
        </mxCell>
        <mxCell id="I66v4goZn6Pbe-Iw9Bqh-170" value="" style="endArrow=classic;html=1;rounded=0;exitX=0.5;exitY=1;exitDx=0;exitDy=0;entryX=0.5;entryY=0;entryDx=0;entryDy=0;" edge="1" parent="1">
          <mxGeometry width="50" height="50" relative="1" as="geometry">
            <mxPoint x="717.25" y="789" as="sourcePoint" />
            <mxPoint x="716.75" y="819" as="targetPoint" />
          </mxGeometry>
        </mxCell>
        <mxCell id="I66v4goZn6Pbe-Iw9Bqh-171" value="" style="endArrow=classic;html=1;rounded=0;exitX=0.5;exitY=1;exitDx=0;exitDy=0;entryX=0.5;entryY=0;entryDx=0;entryDy=0;" edge="1" parent="1">
          <mxGeometry width="50" height="50" relative="1" as="geometry">
            <mxPoint x="777.25" y="789" as="sourcePoint" />
            <mxPoint x="776.75" y="819" as="targetPoint" />
          </mxGeometry>
        </mxCell>
        <mxCell id="I66v4goZn6Pbe-Iw9Bqh-172" value="" style="endArrow=classic;html=1;rounded=0;exitX=0.5;exitY=1;exitDx=0;exitDy=0;entryX=0.5;entryY=0;entryDx=0;entryDy=0;" edge="1" parent="1" source="I66v4goZn6Pbe-Iw9Bqh-37" target="I66v4goZn6Pbe-Iw9Bqh-60">
          <mxGeometry width="50" height="50" relative="1" as="geometry">
            <mxPoint x="837.25" y="789" as="sourcePoint" />
            <mxPoint x="836.75" y="819" as="targetPoint" />
          </mxGeometry>
        </mxCell>
        <mxCell id="I66v4goZn6Pbe-Iw9Bqh-173" value="" style="endArrow=classic;html=1;rounded=0;exitX=0.5;exitY=1;exitDx=0;exitDy=0;entryX=0.5;entryY=0;entryDx=0;entryDy=0;" edge="1" parent="1" source="I66v4goZn6Pbe-Iw9Bqh-62" target="I66v4goZn6Pbe-Iw9Bqh-66">
          <mxGeometry width="50" height="50" relative="1" as="geometry">
            <mxPoint x="897.25" y="789" as="sourcePoint" />
            <mxPoint x="896.75" y="819" as="targetPoint" />
          </mxGeometry>
        </mxCell>
        <mxCell id="I66v4goZn6Pbe-Iw9Bqh-176" value="" style="edgeStyle=elbowEdgeStyle;elbow=vertical;endArrow=classic;html=1;curved=0;rounded=0;endSize=8;startSize=8;exitX=0.5;exitY=1;exitDx=0;exitDy=0;entryX=0.5;entryY=0;entryDx=0;entryDy=0;" edge="1" parent="1" source="I66v4goZn6Pbe-Iw9Bqh-113" target="I66v4goZn6Pbe-Iw9Bqh-25">
          <mxGeometry width="50" height="50" relative="1" as="geometry">
            <mxPoint x="430" y="720" as="sourcePoint" />
            <mxPoint x="480" y="670" as="targetPoint" />
          </mxGeometry>
        </mxCell>
        <mxCell id="I66v4goZn6Pbe-Iw9Bqh-177" value="" style="edgeStyle=elbowEdgeStyle;elbow=vertical;endArrow=classic;html=1;curved=0;rounded=0;endSize=8;startSize=8;exitX=0.5;exitY=1;exitDx=0;exitDy=0;entryX=0.5;entryY=0;entryDx=0;entryDy=0;" edge="1" parent="1" source="I66v4goZn6Pbe-Iw9Bqh-114" target="I66v4goZn6Pbe-Iw9Bqh-25">
          <mxGeometry width="50" height="50" relative="1" as="geometry">
            <mxPoint x="326" y="622" as="sourcePoint" />
            <mxPoint x="650" y="646" as="targetPoint" />
          </mxGeometry>
        </mxCell>
        <mxCell id="I66v4goZn6Pbe-Iw9Bqh-178" value="" style="edgeStyle=elbowEdgeStyle;elbow=vertical;endArrow=classic;html=1;curved=0;rounded=0;endSize=8;startSize=8;exitX=0.5;exitY=1;exitDx=0;exitDy=0;entryX=0.5;entryY=0;entryDx=0;entryDy=0;" edge="1" parent="1" source="I66v4goZn6Pbe-Iw9Bqh-118" target="I66v4goZn6Pbe-Iw9Bqh-25">
          <mxGeometry width="50" height="50" relative="1" as="geometry">
            <mxPoint x="553" y="622" as="sourcePoint" />
            <mxPoint x="650" y="646" as="targetPoint" />
          </mxGeometry>
        </mxCell>
        <mxCell id="I66v4goZn6Pbe-Iw9Bqh-179" value="" style="edgeStyle=elbowEdgeStyle;elbow=vertical;endArrow=classic;html=1;curved=0;rounded=0;endSize=8;startSize=8;exitX=0.5;exitY=1;exitDx=0;exitDy=0;entryX=0.5;entryY=0;entryDx=0;entryDy=0;" edge="1" parent="1" source="I66v4goZn6Pbe-Iw9Bqh-115" target="I66v4goZn6Pbe-Iw9Bqh-25">
          <mxGeometry width="50" height="50" relative="1" as="geometry">
            <mxPoint x="703" y="622" as="sourcePoint" />
            <mxPoint x="650" y="646" as="targetPoint" />
          </mxGeometry>
        </mxCell>
        <mxCell id="I66v4goZn6Pbe-Iw9Bqh-180" value="DataGen" style="rounded=1;whiteSpace=wrap;html=1;fillColor=#dae8fc;strokeColor=#6c8ebf;" vertex="1" parent="1">
          <mxGeometry x="932" y="819" width="50" height="20" as="geometry" />
        </mxCell>
        <mxCell id="I66v4goZn6Pbe-Iw9Bqh-181" value="" style="endArrow=classic;html=1;rounded=0;exitX=0.5;exitY=1;exitDx=0;exitDy=0;entryX=0.5;entryY=0;entryDx=0;entryDy=0;" edge="1" parent="1">
          <mxGeometry width="50" height="50" relative="1" as="geometry">
            <mxPoint x="956.79" y="789" as="sourcePoint" />
            <mxPoint x="956.79" y="819" as="targetPoint" />
          </mxGeometry>
        </mxCell>
        <mxCell id="I66v4goZn6Pbe-Iw9Bqh-182" value="自带" style="rounded=1;whiteSpace=wrap;html=1;fillColor=#dae8fc;strokeColor=#6c8ebf;" vertex="1" parent="1">
          <mxGeometry x="1000" y="819" width="50" height="20" as="geometry" />
        </mxCell>
        <mxCell id="I66v4goZn6Pbe-Iw9Bqh-183" value="" style="endArrow=classic;html=1;rounded=0;exitX=0.5;exitY=1;exitDx=0;exitDy=0;entryX=0.5;entryY=0;entryDx=0;entryDy=0;" edge="1" parent="1">
          <mxGeometry width="50" height="50" relative="1" as="geometry">
            <mxPoint x="1024.74" y="789" as="sourcePoint" />
            <mxPoint x="1024.74" y="819" as="targetPoint" />
          </mxGeometry>
        </mxCell>
      </root>
    </mxGraphModel>
  </diagram>
</mxfile>
